<svg xmlns="http://www.w3.org/2000/svg" xmlns:xlink="http://www.w3.org/1999/xlink"><symbol id="icon-facebook" viewBox="0 0 27 27">
<path fill-rule="evenodd" clip-rule="evenodd" d="M27 13.5C27 6.04462 20.9562 0 13.5 0C6.04379 0 0 6.04462 0 13.5C0 20.9562 6.04369 27 13.5 27C20.9562 27 27 20.9563 27 13.5ZM16.8836 9.29395H15.1437C14.6754 9.29395 14.3464 9.69053 14.3464 10.185V10.9604H16.8312L16.4288 13.4772H14.3455V20.2238H11.8025V13.4772H10.115V10.9604H11.8025V9.677H11.8075C11.8523 8.21392 12.3602 6.82092 14.8383 6.73315V6.72388H16.8836V9.29395Z" fill="#CDCDCD"/>
</symbol><symbol id="icon-logo" viewBox="0 0 52 52">
<path d="M32.0668 13.8665C33.1952 13.8665 34.1485 14.5936 34.5073 15.5998H43.4929C43.8517 14.5936 44.805 13.8665 45.9334 13.8665C47.3669 13.8665 48.5334 15.033 48.5334 16.4664C48.5334 17.8999 47.3669 19.0664 45.9334 19.0664C44.805 19.0664 43.8517 18.3392 43.4929 17.3331H34.5064C34.1476 18.3392 33.1943 19.0664 32.0659 19.0664C30.6324 19.0664 29.4659 17.8999 29.4659 16.4664C29.4659 15.033 30.6333 13.8665 32.0668 13.8665ZM45.9334 17.3331C46.411 17.3331 46.8001 16.9448 46.8001 16.4664C46.8001 15.988 46.411 15.5998 45.9334 15.5998C45.4559 15.5998 45.0668 15.988 45.0668 16.4664C45.0668 16.9448 45.4559 17.3331 45.9334 17.3331ZM32.0668 17.3331C32.5443 17.3331 32.9334 16.9448 32.9334 16.4664C32.9334 15.988 32.5443 15.5998 32.0668 15.5998C31.5892 15.5998 31.2001 15.988 31.2001 16.4664C31.2001 16.9448 31.5892 17.3331 32.0668 17.3331Z" fill="#00B2FF"/>
<path d="M25.1333 19.2259V13.8665C25.1333 13.636 25.2243 13.4158 25.3872 13.2538L28.8539 9.78716C29.0159 9.62423 29.2369 9.53323 29.4666 9.53323H32.2261C32.5849 8.52705 33.5382 7.79993 34.6666 7.79993C36.1001 7.79993 37.2666 8.96644 37.2666 10.3999C37.2666 11.8333 36.1001 12.9998 34.6666 12.9998C33.5382 12.9998 32.5849 12.2727 32.2261 11.2665H29.8254L26.8666 14.2253V19.2259C27.8728 19.5847 28.5999 20.538 28.5999 21.6664C28.5999 23.0998 27.4334 24.2663 25.9999 24.2663C24.5665 24.2663 23.3999 23.0998 23.3999 21.6664C23.3999 20.538 24.1271 19.5847 25.1333 19.2259ZM34.6666 11.2665C35.1441 11.2665 35.5333 10.8783 35.5333 10.3999C35.5333 9.92149 35.1441 9.53323 34.6666 9.53323C34.1891 9.53323 33.7999 9.92149 33.7999 10.3999C33.7999 10.8783 34.1891 11.2665 34.6666 11.2665ZM25.9999 22.533C26.4775 22.533 26.8666 22.1448 26.8666 21.6664C26.8666 21.188 26.4775 20.7997 25.9999 20.7997C25.5224 20.7997 25.1333 21.188 25.1333 21.6664C25.1333 22.1448 25.5224 22.533 25.9999 22.533Z" fill="#00B2FF"/>
<path d="M9.53333 22.533C9.93373 22.533 10.3081 22.6309 10.647 22.7938L12.1333 21.3075V12.9998C12.1333 12.7693 12.2243 12.5491 12.3873 12.3871L21.0609 3.7136C20.8979 3.37474 20.8 3.00035 20.8 2.59996C20.8 1.16651 21.9665 0 23.4 0C24.8335 0 26 1.16651 26 2.59996C26 4.0334 24.8335 5.19991 23.4 5.19991C22.9996 5.19991 22.6252 5.10198 22.2863 4.93905L13.8667 13.3586V21.6663C13.8667 21.8968 13.7757 22.117 13.6127 22.279L11.8725 24.0193C12.0354 24.3581 12.1333 24.7325 12.1333 25.1329C12.1333 26.5664 10.9668 27.7329 9.53333 27.7329C8.09986 27.7329 6.93333 26.5664 6.93333 25.1329C6.93333 23.6995 8.09986 22.533 9.53333 22.533ZM23.4 3.46661C23.8775 3.46661 24.2667 3.07835 24.2667 2.59996C24.2667 2.12156 23.8775 1.7333 23.4 1.7333C22.9225 1.7333 22.5333 2.12156 22.5333 2.59996C22.5333 3.07835 22.9225 3.46661 23.4 3.46661ZM9.53333 25.9996C10.0109 25.9996 10.4 25.6113 10.4 25.1329C10.4 24.6545 10.0109 24.2663 9.53333 24.2663C9.0558 24.2663 8.66667 24.6545 8.66667 25.1329C8.66667 25.6113 9.0558 25.9996 9.53333 25.9996Z" fill="#00B2FF"/>
<path d="M1.73328 12.2926V8.66652C1.73328 8.43599 1.82428 8.21586 1.98722 8.0538L8.05388 1.98723C8.21595 1.8243 8.43695 1.7333 8.66662 1.7333H13.1594C13.5182 0.727121 14.4716 0 15.6 0C17.0334 0 18.2 1.16651 18.2 2.59996C18.2 4.0334 17.0334 5.19991 15.6 5.19991C14.4716 5.19991 13.5182 4.47279 13.1594 3.46661H9.02542L3.46662 9.02532V12.2926C4.47282 12.6514 5.19995 13.6047 5.19995 14.7331C5.19995 16.1665 4.03342 17.333 2.59995 17.333C1.16648 17.333 -4.95911e-05 16.1665 -4.95911e-05 14.7331C-4.95911e-05 13.6047 0.727085 12.6514 1.73328 12.2926ZM15.6 3.46661C16.0775 3.46661 16.4666 3.07835 16.4666 2.59996C16.4666 2.12156 16.0775 1.7333 15.6 1.7333C15.1224 1.7333 14.7333 2.12156 14.7333 2.59996C14.7333 3.07835 15.1224 3.46661 15.6 3.46661ZM2.59995 15.5997C3.07748 15.5997 3.46662 15.2115 3.46662 14.7331C3.46662 14.2547 3.07748 13.8664 2.59995 13.8664C2.12242 13.8664 1.73328 14.2547 1.73328 14.7331C1.73328 15.2115 2.12242 15.5997 2.59995 15.5997Z" fill="#00B2FF"/>
<path d="M13.8658 46.9595V34.5066C12.8604 34.1478 12.1333 33.1945 12.1333 32.0661C12.1333 30.6327 13.2998 29.4661 14.7333 29.4661C15.8617 29.4661 16.815 30.1933 17.1738 31.1995H26.1594C26.5182 30.1933 27.4716 29.4661 28.6 29.4661C29.7284 29.4661 30.6817 30.1933 31.0405 31.1995H36.0412L39.2608 27.9798C39.0979 27.641 39 27.2666 39 26.8662C39 25.4327 40.1665 24.2662 41.6 24.2662C43.0334 24.2662 44.2 25.4327 44.2 26.8662C44.2 28.2996 43.0334 29.4661 41.6 29.4661C41.1996 29.4661 40.8252 29.3682 40.4863 29.2053L37.0127 32.6788C36.8506 32.8418 36.6296 32.9328 36.4 32.9328H31.0405C30.6817 33.9389 29.7284 34.6661 28.6 34.6661C27.4716 34.6661 26.5182 33.9389 26.1594 32.9328H17.173C16.9112 33.6668 16.3332 34.2449 15.5991 34.5066V46.9595C16.6053 47.3183 17.3324 48.2716 17.3324 49.4C17.3324 50.8335 16.1659 52 14.7324 52C13.299 52 12.1324 50.8335 12.1324 49.4C12.1324 48.2716 12.8596 47.3183 13.8658 46.9595ZM41.6 27.7328C42.0775 27.7328 42.4666 27.3446 42.4666 26.8662C42.4666 26.3878 42.0775 25.9995 41.6 25.9995C41.1224 25.9995 40.7333 26.3878 40.7333 26.8662C40.7333 27.3446 41.1224 27.7328 41.6 27.7328ZM28.6 32.9328C29.0775 32.9328 29.4666 32.5445 29.4666 32.0661C29.4666 31.5877 29.0775 31.1995 28.6 31.1995C28.1224 31.1995 27.7333 31.5877 27.7333 32.0661C27.7333 32.5445 28.1224 32.9328 28.6 32.9328ZM14.7333 50.2658C15.2108 50.2658 15.6 49.8775 15.6 49.3991C15.6 48.9208 15.2108 48.5325 14.7333 48.5325C14.2558 48.5325 13.8666 48.9208 13.8666 49.3991C13.8666 49.8775 14.2558 50.2658 14.7333 50.2658ZM14.7333 32.9328C15.2108 32.9328 15.6 32.5445 15.6 32.0661C15.6 31.5877 15.2108 31.1995 14.7333 31.1995C14.2558 31.1995 13.8666 31.5877 13.8666 32.0661C13.8666 32.5445 14.2558 32.9328 14.7333 32.9328Z" fill="#00B2FF"/>
<path d="M18.2 17.4925V14.7331C18.2 14.5026 18.291 14.2824 18.4539 14.1204L28.8609 3.7136C28.6979 3.37474 28.6 3.00035 28.6 2.59996C28.6 1.16651 29.7665 0 31.2 0C32.3284 0 33.2817 0.727121 33.6405 1.7333H37.2667C37.7451 1.7333 38.1333 2.1207 38.1333 2.59996V4.84112L41.353 8.06073C41.6919 7.8978 42.0663 7.79987 42.4667 7.79987C43.9001 7.79987 45.0667 8.96638 45.0667 10.3998C45.0667 11.8333 43.9001 12.9998 42.4667 12.9998C41.0332 12.9998 39.8667 11.8333 39.8667 10.3998C39.8667 9.99943 39.9646 9.62504 40.1275 9.28618L36.6539 5.81264C36.491 5.65057 36.4 5.43044 36.4 5.19991V3.46661H33.6405C33.2817 4.47279 32.3284 5.19991 31.2 5.19991C30.7996 5.19991 30.4252 5.10198 30.0863 4.93905L19.9333 15.0919V17.4925C20.9395 17.8513 21.6667 18.8046 21.6667 19.933C21.6667 21.3664 20.5001 22.533 19.0667 22.533C17.6332 22.533 16.4667 21.3664 16.4667 19.933C16.4667 18.8046 17.1938 17.8513 18.2 17.4925ZM42.4667 11.2665C42.9442 11.2665 43.3333 10.8782 43.3333 10.3998C43.3333 9.92143 42.9442 9.53317 42.4667 9.53317C41.9891 9.53317 41.6 9.92143 41.6 10.3998C41.6 10.8782 41.9891 11.2665 42.4667 11.2665ZM31.2 3.46661C31.6775 3.46661 32.0667 3.07835 32.0667 2.59996C32.0667 2.12156 31.6775 1.7333 31.2 1.7333C30.7225 1.7333 30.3333 2.12156 30.3333 2.59996C30.3333 3.07835 30.7225 3.46661 31.2 3.46661ZM19.0667 20.7997C19.5442 20.7997 19.9333 20.4114 19.9333 19.933C19.9333 19.4546 19.5442 19.0663 19.0667 19.0663C18.5891 19.0663 18.2 19.4546 18.2 19.933C18.2 20.4114 18.5891 20.7997 19.0667 20.7997Z" fill="#00B2FF"/>
<path d="M20.8 24.2663C21.9284 24.2663 22.8817 24.9934 23.2405 25.9996H33.4412L38.3873 21.0536C38.5493 20.8906 38.7703 20.7997 39 20.7997H48.1745L50.2667 18.7076V11.6253L43.5803 4.93905C43.2415 5.10198 42.8671 5.19991 42.4667 5.19991C41.0332 5.19991 39.8667 4.0334 39.8667 2.59996C39.8667 1.16651 41.0332 0 42.4667 0C43.9001 0 45.0667 1.16651 45.0667 2.59996C45.0667 3.00035 44.9687 3.37474 44.8058 3.7136L51.7461 10.6538C51.909 10.8158 52 11.0359 52 11.2665V19.0663C52 19.2969 51.909 19.517 51.7461 19.6791L49.1461 22.279C48.984 22.442 48.763 22.533 48.5333 22.533H39.3588L34.4127 27.4789C34.2507 27.6419 34.0297 27.7329 33.8 27.7329H23.2405C22.8817 28.7391 21.9284 29.4662 20.8 29.4662C19.3665 29.4662 18.2 28.2997 18.2 26.8662C18.2 25.4328 19.3665 24.2663 20.8 24.2663ZM42.4667 1.7333C41.9891 1.7333 41.6 2.12156 41.6 2.59996C41.6 3.07835 41.9891 3.46661 42.4667 3.46661C42.9442 3.46661 43.3333 3.07835 43.3333 2.59996C43.3333 2.12156 42.9442 1.7333 42.4667 1.7333ZM20.8 27.7329C21.2775 27.7329 21.6667 27.3446 21.6667 26.8662C21.6667 26.3878 21.2775 25.9996 20.8 25.9996C20.3225 25.9996 19.9333 26.3878 19.9333 26.8662C19.9333 27.3446 20.3225 27.7329 20.8 27.7329Z" fill="#00B2FF"/>
<path d="M2.59997 20.7997C3.00037 20.7997 3.37477 20.8976 3.71363 21.0606L6.9333 17.841V12.8404C5.9271 12.4816 5.19997 11.5283 5.19997 10.3999C5.19997 8.96644 6.3665 7.79993 7.79997 7.79993C9.23343 7.79993 10.4 8.96644 10.4 10.3999C10.4 11.5283 9.67283 12.4816 8.66663 12.8404V18.1998C8.66663 18.4303 8.57563 18.6504 8.4127 18.8125L4.9391 22.286C5.10204 22.6249 5.19997 22.9993 5.19997 23.3997C5.19997 24.528 4.47283 25.4814 3.46663 25.8402V26.5075L10.146 33.1868C10.309 33.3488 10.4 33.569 10.4 33.7995V34.8256C11.4062 35.1844 12.1333 36.1377 12.1333 37.2661C12.1333 38.3945 11.4062 39.3478 10.4 39.7066V41.7597C11.4062 42.1185 12.1333 43.0718 12.1333 44.2002C12.1333 45.6336 10.9668 46.8001 9.5333 46.8001C8.09983 46.8001 6.9333 45.6336 6.9333 44.2002C6.9333 43.0718 7.66043 42.1185 8.66663 41.7597V39.7066C7.66043 39.3478 6.9333 38.3945 6.9333 37.2661C6.9333 36.1377 7.66043 35.1844 8.66663 34.8256V34.1583L1.98723 27.479C1.8243 27.3169 1.7333 27.0968 1.7333 26.8663V25.8402C0.7271 25.4814 -3.24249e-05 24.528 -3.24249e-05 23.3997C-3.24249e-05 21.9662 1.1665 20.7997 2.59997 20.7997ZM7.79997 11.2665C8.2775 11.2665 8.66663 10.8783 8.66663 10.3999C8.66663 9.92149 8.2775 9.53323 7.79997 9.53323C7.32243 9.53323 6.9333 9.92149 6.9333 10.3999C6.9333 10.8783 7.32243 11.2665 7.79997 11.2665ZM9.5333 45.066C10.0108 45.066 10.4 44.6777 10.4 44.1993C10.4 43.7209 10.0108 43.3327 9.5333 43.3327C9.05577 43.3327 8.66663 43.7209 8.66663 44.1993C8.66663 44.6777 9.05577 45.066 9.5333 45.066ZM9.5333 38.1328C10.0108 38.1328 10.4 37.7445 10.4 37.2661C10.4 36.7877 10.0108 36.3995 9.5333 36.3995C9.05577 36.3995 8.66663 36.7877 8.66663 37.2661C8.66663 37.7445 9.05577 38.1328 9.5333 38.1328ZM2.59997 24.2663C3.0775 24.2663 3.46663 23.8781 3.46663 23.3997C3.46663 22.9213 3.0775 22.533 2.59997 22.533C2.12243 22.533 1.7333 22.9213 1.7333 23.3997C1.7333 23.8781 2.12243 24.2663 2.59997 24.2663Z" fill="#00B2FF"/>
</symbol><symbol id="icon-mail" viewBox="0 0 19 14">
<path d="M16.6805 0H2.3234C1.0418 0 0 1.0087 0 2.24959V11.7504C0 12.9913 1.0418 14 2.3234 14H16.6766C17.9582 14 19 12.9913 19 11.7504V2.2534C19.0039 1.01251 17.9621 0 16.6805 0ZM17.9425 11.7504C17.9425 12.4241 17.3764 12.9723 16.6805 12.9723H2.3234C1.62756 12.9723 1.06145 12.4241 1.06145 11.7504V2.2534C1.06145 1.57966 1.62756 1.03154 2.3234 1.03154H16.6766C17.3724 1.03154 17.9385 1.57966 17.9385 2.2534V11.7504H17.9425Z" fill=""/>
<path d="M11.9827 6.88195L16.6295 2.84715C16.8457 2.65683 16.8654 2.33328 16.6688 2.12012C16.4723 1.91077 16.1381 1.89174 15.9179 2.08206L9.50992 7.65085L8.25977 6.56982C8.25584 6.56602 8.2519 6.56221 8.2519 6.5584C8.22439 6.53176 8.19687 6.50892 8.16542 6.48608L3.07831 2.07825C2.85816 1.88793 2.524 1.90696 2.32743 2.12012C2.13087 2.33328 2.15052 2.65683 2.37068 2.84715L7.07251 6.91621L2.39033 11.1604C2.17804 11.3545 2.16625 11.678 2.36674 11.8874C2.47289 11.994 2.61442 12.0511 2.75594 12.0511C2.88568 12.0511 3.01541 12.0054 3.11762 11.914L7.87057 7.60898L9.16004 8.72426C9.26225 8.8118 9.38805 8.85367 9.51385 8.85367C9.63965 8.85367 9.76939 8.808 9.86767 8.72045L11.1925 7.57091L15.9179 11.9178C16.0202 12.013 16.1538 12.0587 16.2836 12.0587C16.4251 12.0587 16.5627 12.0054 16.6688 11.8988C16.8693 11.6933 16.8615 11.3659 16.6492 11.1718L11.9827 6.88195Z" fill=""/>
</symbol><symbol id="icon-ok" viewBox="0 0 27 26">
<path d="M13.8512 10.957C14.8668 10.957 15.6568 10.1213 15.638 9.2113C15.6568 8.3013 14.8857 7.44702 13.87 7.44702C12.892 7.44702 12.0833 8.22702 12.0833 9.19273C12.0833 10.1584 12.8732 10.957 13.8512 10.957Z" fill="#CDCDCD"/>
<path d="M13.701 0C6.44113 0 0.5354 5.8314 0.5354 12.9999C0.5354 20.187 6.44113 25.9999 13.701 25.9999C20.9797 25.9999 26.8667 20.1685 26.8667 12.9999C26.8855 5.8314 20.9797 0 13.701 0ZM13.8891 4.9214C16.2589 4.9214 18.215 6.85282 18.1962 9.21138C18.1962 11.5885 16.2213 13.5014 13.8139 13.4642C11.4441 13.4271 9.54445 11.5142 9.54445 9.19281C9.54445 6.83425 11.4817 4.9214 13.8891 4.9214ZM18.7228 14.9499C18.7228 14.9871 18.704 15.0056 18.704 15.0428C18.6475 15.4142 18.4595 15.7114 18.1397 15.9156C17.9328 16.0456 17.7071 16.1756 17.4814 16.2871C16.9172 16.5656 16.3153 16.7885 15.6947 16.9371C15.6195 16.9556 15.6195 16.9556 15.6759 17.0113C16.0144 17.3456 16.3718 17.6985 16.7103 18.0328C17.1429 18.4599 17.5943 18.9056 18.0269 19.3328C18.6475 19.9456 18.4783 20.967 17.6883 21.3385C17.5567 21.4128 17.4062 21.4313 17.2558 21.4685C17.1805 21.4685 17.0865 21.4685 17.0112 21.4685C16.9924 21.4685 16.9736 21.4685 16.9736 21.4499C16.6727 21.4128 16.4282 21.2642 16.2025 21.0599C15.4502 20.317 14.679 19.5556 13.9267 18.8128C13.8703 18.7571 13.8703 18.7571 13.8139 18.8128C13.0427 19.5742 12.2904 20.317 11.5193 21.0785C11.3876 21.2085 11.256 21.3013 11.0867 21.3756C10.9739 21.4313 10.8422 21.4499 10.7294 21.4685C10.6541 21.4685 10.5789 21.4685 10.4849 21.4685C10.4472 21.4685 10.4284 21.4499 10.3908 21.4499C9.883 21.357 9.54445 21.0785 9.39399 20.5956C9.24352 20.1128 9.35637 19.6856 9.71373 19.3328C10.0335 19.017 10.3344 18.7199 10.6541 18.4042C11.1243 17.9399 11.5945 17.4756 12.0459 17.0299C12.1023 16.9742 12.1023 16.9742 12.0271 16.9556C12.0083 16.9556 11.9707 16.9371 11.9519 16.9371C11.1055 16.7328 10.3344 16.3985 9.60088 15.9528C9.16829 15.6742 8.9614 15.2656 9.01783 14.7642C9.11187 13.8356 10.1651 13.3342 10.9551 13.8356C11.1055 13.9285 11.2372 14.0028 11.4064 14.0771C12.2716 14.5042 13.1932 14.6899 14.1524 14.6342C14.6226 14.6156 15.0928 14.5228 15.563 14.3742C16.0144 14.2256 16.4094 14.0214 16.8232 13.7985C17.5003 13.4085 18.3842 13.7242 18.6475 14.4485C18.6852 14.5599 18.704 14.6528 18.7228 14.7642C18.7228 14.8199 18.7228 14.8756 18.7228 14.9499Z" fill="#CDCDCD"/>
</symbol><symbol id="icon-phone" viewBox="0 0 18 18">
<path d="M14.2333 11.1503C13.8642 10.7666 13.4191 10.5615 12.9473 10.5615C12.4794 10.5615 12.0304 10.7628 11.6462 11.1465L10.4439 12.3432C10.345 12.2901 10.2461 12.2407 10.151 12.1913C10.014 12.1229 9.88467 12.0583 9.77433 11.9899C8.64819 11.2757 7.62476 10.3449 6.64319 9.14066C6.16762 8.54041 5.84804 8.03514 5.61596 7.52227C5.92793 7.23735 6.21708 6.94102 6.49861 6.6561C6.60514 6.54972 6.71167 6.43955 6.8182 6.33318C7.61715 5.53538 7.61715 4.50205 6.8182 3.70425L5.77955 2.66712C5.66161 2.54935 5.53987 2.42778 5.42573 2.30621C5.19746 2.07067 4.95777 1.82754 4.71047 1.59959C4.34143 1.23489 3.9001 1.04114 3.43595 1.04114C2.97179 1.04114 2.52286 1.23489 2.1424 1.59959C2.1386 1.60339 2.1386 1.60339 2.13479 1.60719L0.841243 2.91026C0.35426 3.39653 0.076528 3.98918 0.0156552 4.6768C-0.0756541 5.78612 0.251537 6.81945 0.502638 7.49568C1.11898 9.15586 2.03968 10.6945 3.41312 12.3432C5.07952 14.3301 7.08452 15.8991 9.37486 17.0046C10.2499 17.4187 11.4179 17.9088 12.7229 17.9924C12.8028 17.9962 12.8865 18 12.9626 18C13.8414 18 14.5795 17.6847 15.1578 17.0578C15.1616 17.0502 15.1692 17.0464 15.173 17.0388C15.3708 16.7995 15.5991 16.5829 15.8388 16.3512C16.0024 16.1954 16.1698 16.0321 16.3334 15.8611C16.71 15.4698 16.9079 15.014 16.9079 14.5467C16.9079 14.0756 16.7062 13.6235 16.322 13.2436L14.2333 11.1503ZM15.5953 15.1507C15.5915 15.1507 15.5915 15.1545 15.5953 15.1507C15.4469 15.3103 15.2947 15.4546 15.1311 15.6142C14.8838 15.8497 14.6327 16.0967 14.3969 16.374C14.0126 16.7843 13.5599 16.978 12.9664 16.978C12.9093 16.978 12.8484 16.978 12.7913 16.9742C11.6614 16.9021 10.6113 16.4614 9.82379 16.0853C7.67042 15.0443 5.77955 13.5665 4.20827 11.6936C2.91092 10.1322 2.04348 8.68857 1.46899 7.13857C1.11517 6.19262 0.985816 5.4556 1.04288 4.76038C1.08093 4.3159 1.25214 3.94739 1.56791 3.63207L2.86527 2.33661C3.05169 2.16185 3.24953 2.06687 3.44356 2.06687C3.68324 2.06687 3.87728 2.21124 3.99902 2.33281C4.00283 2.33661 4.00663 2.3404 4.01044 2.3442C4.24251 2.56075 4.46318 2.78489 4.69526 3.02423C4.8132 3.1458 4.93494 3.26737 5.05669 3.39273L6.09533 4.42987C6.49861 4.83256 6.49861 5.20487 6.09533 5.60757C5.985 5.71774 5.87847 5.82791 5.76814 5.93428C5.44856 6.261 5.14419 6.56492 4.8132 6.86124C4.80559 6.86884 4.79798 6.87264 4.79417 6.88024C4.46698 7.20695 4.52786 7.52607 4.59634 7.74262C4.60014 7.75401 4.60395 7.76541 4.60775 7.77681C4.87787 8.43024 5.25833 9.04568 5.83662 9.7789L5.84043 9.78269C6.89048 11.0744 7.99761 12.0811 9.21887 12.8523C9.37486 12.9511 9.53465 13.0309 9.68683 13.1068C9.82379 13.1752 9.95315 13.2398 10.0635 13.3082C10.0787 13.3158 10.0939 13.3272 10.1091 13.3348C10.2385 13.3994 10.3602 13.4298 10.4858 13.4298C10.8016 13.4298 10.9994 13.2322 11.0641 13.1676L12.3652 11.8684C12.4946 11.7392 12.7 11.5834 12.9397 11.5834C13.1756 11.5834 13.3696 11.7316 13.4876 11.8608C13.4914 11.8646 13.4914 11.8646 13.4952 11.8684L15.5915 13.9616C15.9834 14.3491 15.9834 14.748 15.5953 15.1507Z" fill=""/>
<path d="M9.72843 4.28169C10.7252 4.44885 11.6307 4.91992 12.3536 5.64174C13.0764 6.36355 13.5444 7.26772 13.7156 8.26307C13.7575 8.5138 13.9743 8.68856 14.2216 8.68856C14.252 8.68856 14.2787 8.68476 14.3091 8.68096C14.5907 8.63537 14.7771 8.36944 14.7314 8.08831C14.526 6.88402 13.9553 5.7861 13.0841 4.91613C12.2128 4.04615 11.1133 3.4763 9.90725 3.27115C9.62571 3.22556 9.3632 3.41171 9.31374 3.68904C9.26428 3.96637 9.4469 4.2361 9.72843 4.28169Z" fill=""/>
<path d="M17.9921 7.94018C17.6535 5.95709 16.7176 4.15255 15.2795 2.71652C13.8414 1.28049 12.0342 0.345932 10.0482 0.00781895C9.77051 -0.0415684 9.50799 0.148383 9.45853 0.425712C9.41288 0.70684 9.5993 0.968972 9.88084 1.01836C11.6538 1.31848 13.2707 2.15807 14.5566 3.43834C15.8426 4.72241 16.6796 6.33699 16.9801 8.10734C17.022 8.35808 17.2388 8.53283 17.4861 8.53283C17.5166 8.53283 17.5432 8.52903 17.5736 8.52523C17.8514 8.48344 18.0416 8.21751 17.9921 7.94018Z" fill=""/>
</symbol><symbol id="icon-text" viewBox="0 0 133 40">
<path d="M8.93555 14.3369C8.93555 13.6126 8.74837 13.0674 8.37402 12.7012C8.00781 12.3268 7.33643 11.9403 6.35986 11.5415C4.57764 10.866 3.2959 10.0767 2.51465 9.17334C1.7334 8.26188 1.34277 7.18766 1.34277 5.95068C1.34277 4.45329 1.87174 3.25293 2.92969 2.34961C3.99577 1.43815 5.34668 0.982422 6.98242 0.982422C8.07292 0.982422 9.04541 1.21436 9.8999 1.67822C10.7544 2.13395 11.4095 2.78092 11.8652 3.61914C12.3291 4.45736 12.561 5.40951 12.561 6.47559H8.98438C8.98438 5.64551 8.80534 5.01481 8.44727 4.5835C8.09733 4.14404 7.5887 3.92432 6.92139 3.92432C6.29476 3.92432 5.80648 4.11149 5.45654 4.48584C5.10661 4.85205 4.93164 5.34847 4.93164 5.9751C4.93164 6.46338 5.12695 6.9069 5.51758 7.30566C5.9082 7.69629 6.59993 8.10319 7.59277 8.52637C9.32617 9.15299 10.5835 9.92204 11.3647 10.8335C12.1541 11.745 12.5488 12.9046 12.5488 14.3125C12.5488 15.8587 12.0565 17.0672 11.0718 17.938C10.0871 18.8088 8.74837 19.2441 7.05566 19.2441C5.9082 19.2441 4.86247 19.0081 3.91846 18.5361C2.97445 18.0641 2.23389 17.3887 1.69678 16.5098C1.16781 15.6309 0.90332 14.5933 0.90332 13.397H4.50439C4.50439 14.4224 4.70378 15.167 5.10254 15.6309C5.5013 16.0947 6.15234 16.3267 7.05566 16.3267C8.30892 16.3267 8.93555 15.6634 8.93555 14.3369ZM18.0054 5.79199L18.103 7.0127C18.8761 6.03613 19.8975 5.54785 21.167 5.54785C22.4854 5.54785 23.4172 6.14193 23.9624 7.33008C24.7192 6.14193 25.7975 5.54785 27.1973 5.54785C29.5085 5.54785 30.6925 7.14697 30.7495 10.3452V19H27.2949V10.5649C27.2949 9.79997 27.1891 9.25472 26.9775 8.9292C26.766 8.60368 26.4079 8.44092 25.9033 8.44092C25.2604 8.44092 24.7803 8.83561 24.4629 9.625L24.4873 10.04V19H21.0327V10.5894C21.0327 9.83252 20.931 9.28727 20.7275 8.95361C20.5241 8.61182 20.1619 8.44092 19.6411 8.44092C19.047 8.44092 18.575 8.76237 18.2251 9.40527V19H14.7705V5.79199H18.0054ZM39.5874 19C39.4897 18.7965 39.3921 18.4548 39.2944 17.9746C38.6759 18.821 37.8377 19.2441 36.7798 19.2441C35.673 19.2441 34.7534 18.8779 34.021 18.1455C33.2967 17.4131 32.9346 16.465 32.9346 15.3013C32.9346 13.9178 33.374 12.8477 34.2529 12.0908C35.14 11.334 36.4136 10.9474 38.0737 10.9312H39.1235V9.86914C39.1235 9.27507 39.0218 8.85596 38.8184 8.61182C38.6149 8.36768 38.3179 8.24561 37.9272 8.24561C37.0646 8.24561 36.6333 8.75016 36.6333 9.75928H33.1787C33.1787 8.53857 33.6344 7.53353 34.5459 6.74414C35.4655 5.94661 36.6252 5.54785 38.0249 5.54785C39.4735 5.54785 40.5924 5.92627 41.3818 6.68311C42.1794 7.4318 42.5781 8.50602 42.5781 9.90576V16.1191C42.5944 17.2585 42.7572 18.1496 43.0664 18.7925V19H39.5874ZM37.5488 16.5342C37.9313 16.5342 38.2568 16.4569 38.5254 16.3022C38.7939 16.1476 38.9933 15.9645 39.1235 15.7529V13.0063H38.2935C37.7075 13.0063 37.2437 13.1935 36.9019 13.5679C36.5682 13.9422 36.4014 14.4427 36.4014 15.0693C36.4014 16.0459 36.7839 16.5342 37.5488 16.5342ZM51.5991 9.12451L50.4517 9.02686C49.5076 9.02686 48.8688 9.44189 48.5352 10.272V19H45.0684V5.79199H48.3276L48.4253 7.22021C48.9705 6.10531 49.7233 5.54785 50.6836 5.54785C51.0742 5.54785 51.3916 5.60075 51.6357 5.70654L51.5991 9.12451ZM58.0078 2.54492V5.79199H59.7778V8.39209H58.0078V14.9473C58.0078 15.4681 58.077 15.8262 58.2153 16.0215C58.3618 16.2168 58.6385 16.3145 59.0454 16.3145C59.3791 16.3145 59.6517 16.286 59.8633 16.229L59.8389 18.9146C59.2529 19.1343 58.6182 19.2441 57.9346 19.2441C55.7048 19.2441 54.5776 17.9665 54.5532 15.4111V8.39209H53.0273V5.79199H54.5532V2.54492H58.0078ZM67.6147 19V1.22656H72.3145C74.3896 1.22656 76.0417 1.88574 77.2705 3.2041C78.5075 4.52246 79.1382 6.3291 79.1626 8.62402V11.5049C79.1626 13.8405 78.5441 15.6756 77.3071 17.0103C76.0783 18.3368 74.3815 19 72.2168 19H67.6147ZM71.2036 4.21729V16.0215H72.2778C73.4741 16.0215 74.3164 15.7082 74.8047 15.0815C75.293 14.4468 75.5493 13.3563 75.5737 11.8101V8.72168C75.5737 7.06152 75.3418 5.90592 74.8779 5.25488C74.4141 4.5957 73.6247 4.24984 72.5098 4.21729H71.2036ZM86.9141 19.2441C85.14 19.2441 83.7565 18.7152 82.7637 17.6572C81.7708 16.5993 81.2744 15.0856 81.2744 13.1162V12.0664C81.2744 9.98307 81.7301 8.37581 82.6416 7.24463C83.5531 6.11344 84.8592 5.54785 86.5601 5.54785C88.2202 5.54785 89.4694 6.08089 90.3076 7.14697C91.1458 8.20492 91.5731 9.77555 91.5894 11.8589V13.5557H84.7168C84.7656 14.5322 84.9813 15.2484 85.3638 15.7041C85.7463 16.1517 86.3363 16.3755 87.1338 16.3755C88.2894 16.3755 89.2537 15.9808 90.0269 15.1914L91.3818 17.2788C90.9587 17.8647 90.3442 18.3408 89.5386 18.707C88.7329 19.0651 87.8581 19.2441 86.9141 19.2441ZM84.7412 11.1387H88.1958V10.8213C88.1795 10.0319 88.0493 9.43376 87.8052 9.02686C87.561 8.61995 87.1379 8.4165 86.5356 8.4165C85.9334 8.4165 85.494 8.63216 85.2173 9.06348C84.9487 9.49479 84.79 10.1865 84.7412 11.1387ZM97.7051 14.1172L99.3774 5.79199H102.979L99.353 19H96.0571L92.4194 5.79199H96.0327L97.7051 14.1172ZM108.228 19H104.761V5.79199H108.228V19ZM104.602 2.37402C104.602 1.83691 104.773 1.39746 105.115 1.05566C105.457 0.713867 105.912 0.542969 106.482 0.542969C107.052 0.542969 107.507 0.713867 107.849 1.05566C108.191 1.39746 108.362 1.83691 108.362 2.37402C108.362 2.90299 108.191 3.34245 107.849 3.69238C107.515 4.04232 107.06 4.21729 106.482 4.21729C105.904 4.21729 105.444 4.04232 105.103 3.69238C104.769 3.34245 104.602 2.90299 104.602 2.37402ZM115.674 16.3755C116.675 16.3755 117.183 15.7244 117.2 14.4224H120.447C120.431 15.8628 119.987 17.0265 119.116 17.9136C118.245 18.8006 117.122 19.2441 115.747 19.2441C114.046 19.2441 112.748 18.7152 111.853 17.6572C110.958 16.5993 110.502 15.0409 110.486 12.9819V11.9321C110.486 9.85693 110.925 8.27409 111.804 7.18359C112.691 6.0931 113.997 5.54785 115.723 5.54785C117.179 5.54785 118.327 5.99951 119.165 6.90283C120.003 7.79801 120.431 9.07161 120.447 10.7236H117.2C117.192 9.98307 117.069 9.41341 116.833 9.01465C116.597 8.61589 116.207 8.4165 115.662 8.4165C115.059 8.4165 114.628 8.63216 114.368 9.06348C114.107 9.48665 113.969 10.3127 113.953 11.5415V12.8843C113.953 13.9585 114.006 14.7113 114.111 15.1426C114.217 15.5658 114.392 15.8791 114.636 16.0825C114.88 16.2778 115.226 16.3755 115.674 16.3755ZM127.734 19.2441C125.96 19.2441 124.577 18.7152 123.584 17.6572C122.591 16.5993 122.095 15.0856 122.095 13.1162V12.0664C122.095 9.98307 122.55 8.37581 123.462 7.24463C124.373 6.11344 125.68 5.54785 127.38 5.54785C129.041 5.54785 130.29 6.08089 131.128 7.14697C131.966 8.20492 132.393 9.77555 132.41 11.8589V13.5557H125.537C125.586 14.5322 125.802 15.2484 126.184 15.7041C126.567 16.1517 127.157 16.3755 127.954 16.3755C129.11 16.3755 130.074 15.9808 130.847 15.1914L132.202 17.2788C131.779 17.8647 131.165 18.3408 130.359 18.707C129.553 19.0651 128.678 19.2441 127.734 19.2441ZM125.562 11.1387H129.016V10.8213C129 10.0319 128.87 9.43376 128.625 9.02686C128.381 8.61995 127.958 8.4165 127.356 8.4165C126.754 8.4165 126.314 8.63216 126.038 9.06348C125.769 9.49479 125.61 10.1865 125.562 11.1387Z" fill="white"/>
<path d="M2.94727 34.9609L4.23633 30.6602H5.75391L3.23438 37.9609C2.84766 39.0273 2.19141 39.5605 1.26562 39.5605C1.05859 39.5605 0.830078 39.5254 0.580078 39.4551V38.3535L0.849609 38.3711C1.20898 38.3711 1.47852 38.3047 1.6582 38.1719C1.8418 38.043 1.98633 37.8242 2.0918 37.5156L2.29688 36.9707L0.0703125 30.6602H1.60547L2.94727 34.9609ZM10.3418 35.248L12.2168 30.6602H13.998V37H12.5742V32.8047L10.8281 37H9.86133L8.10938 32.7812V37H6.68555V30.6602H8.47852L10.3418 35.248ZM20.9707 37H19.5469V34.4395H17.0801V37H15.6562V30.6602H17.0801V33.3027H19.5469V30.6602H20.9707V37ZM24.0234 32.6758H25.418C25.9375 32.6758 26.3906 32.7656 26.7773 32.9453C27.1641 33.125 27.457 33.377 27.6562 33.7012C27.8594 34.0254 27.9609 34.4023 27.9609 34.832C27.9609 35.4844 27.7305 36.0078 27.2695 36.4023C26.8086 36.7969 26.1953 36.9961 25.4297 37H22.5996V30.6602H24.0234V32.6758ZM30.4395 37H29.0156V30.6602H30.4395V37ZM24.0234 33.8184V35.8633H25.4121C25.7598 35.8633 26.0332 35.7773 26.2324 35.6055C26.4355 35.4297 26.5371 35.1816 26.5371 34.8613C26.5371 34.541 26.4375 34.2891 26.2383 34.1055C26.043 33.918 25.7773 33.8223 25.4414 33.8184H24.0234ZM34.9395 37.1172C34.0371 37.1172 33.3047 36.834 32.7422 36.2676C32.1836 35.6973 31.9043 34.9395 31.9043 33.9941V33.8184C31.9043 33.1855 32.0254 32.6211 32.2676 32.125C32.5137 31.625 32.8574 31.2363 33.2988 30.959C33.7402 30.6816 34.2324 30.543 34.7754 30.543C35.6387 30.543 36.3047 30.8184 36.7734 31.3691C37.2461 31.9199 37.4824 32.6992 37.4824 33.707V34.2812H33.3398C33.3828 34.8047 33.5566 35.2188 33.8613 35.5234C34.1699 35.8281 34.5566 35.9805 35.0215 35.9805C35.6738 35.9805 36.2051 35.7168 36.6152 35.1895L37.3828 35.9219C37.1289 36.3008 36.7891 36.5957 36.3633 36.8066C35.9414 37.0137 35.4668 37.1172 34.9395 37.1172ZM34.7695 31.6855C34.3789 31.6855 34.0625 31.8223 33.8203 32.0957C33.582 32.3691 33.4297 32.75 33.3633 33.2383H36.0762V33.1328C36.0449 32.6562 35.918 32.2969 35.6953 32.0547C35.4727 31.8086 35.1641 31.6855 34.7695 31.6855ZM46.5703 31.791H44.5137V37H43.0898V31.791H41.0566V30.6602H46.5703V31.791ZM49.9395 37.1172C49.0371 37.1172 48.3047 36.834 47.7422 36.2676C47.1836 35.6973 46.9043 34.9395 46.9043 33.9941V33.8184C46.9043 33.1855 47.0254 32.6211 47.2676 32.125C47.5137 31.625 47.8574 31.2363 48.2988 30.959C48.7402 30.6816 49.2324 30.543 49.7754 30.543C50.6387 30.543 51.3047 30.8184 51.7734 31.3691C52.2461 31.9199 52.4824 32.6992 52.4824 33.707V34.2812H48.3398C48.3828 34.8047 48.5566 35.2188 48.8613 35.5234C49.1699 35.8281 49.5566 35.9805 50.0215 35.9805C50.6738 35.9805 51.2051 35.7168 51.6152 35.1895L52.3828 35.9219C52.1289 36.3008 51.7891 36.5957 51.3633 36.8066C50.9414 37.0137 50.4668 37.1172 49.9395 37.1172ZM49.7695 31.6855C49.3789 31.6855 49.0625 31.8223 48.8203 32.0957C48.582 32.3691 48.4297 32.75 48.3633 33.2383H51.0762V33.1328C51.0449 32.6562 50.918 32.2969 50.6953 32.0547C50.4727 31.8086 50.1641 31.6855 49.7695 31.6855ZM55.8691 32.7461L57.0762 30.6602H58.6582L56.7188 33.7832L58.7227 37H57.1523L55.8867 34.832L54.627 37H53.0449L55.0488 33.7832L53.1152 30.6602H54.6855L55.8691 32.7461ZM64.998 37H63.5742V34.4395H61.1074V37H59.6836V30.6602H61.1074V33.3027H63.5742V30.6602H64.998V37ZM66.252 33.7715C66.252 33.1504 66.375 32.5918 66.6211 32.0957C66.8672 31.5957 67.2129 31.2129 67.6582 30.9473C68.1035 30.6777 68.6152 30.543 69.1934 30.543C70.0488 30.543 70.7422 30.8184 71.2734 31.3691C71.8086 31.9199 72.0977 32.6504 72.1406 33.5605L72.1465 33.8945C72.1465 34.5195 72.0254 35.0781 71.7832 35.5703C71.5449 36.0625 71.2012 36.4434 70.752 36.7129C70.3066 36.9824 69.791 37.1172 69.2051 37.1172C68.3105 37.1172 67.5938 36.8203 67.0547 36.2266C66.5195 35.6289 66.252 34.834 66.252 33.8418V33.7715ZM67.6758 33.8945C67.6758 34.5469 67.8105 35.0586 68.0801 35.4297C68.3496 35.7969 68.7246 35.9805 69.2051 35.9805C69.6855 35.9805 70.0586 35.793 70.3242 35.418C70.5938 35.043 70.7285 34.4941 70.7285 33.7715C70.7285 33.1309 70.5898 32.623 70.3125 32.248C70.0391 31.873 69.666 31.6855 69.1934 31.6855C68.7285 31.6855 68.3594 31.8711 68.0859 32.2422C67.8125 32.6094 67.6758 33.1602 67.6758 33.8945ZM78.6445 30.6602V37H77.2207V31.8086H75.4277L75.3105 34.0176C75.2363 35.0801 75.0312 35.8438 74.6953 36.3086C74.3633 36.7695 73.8535 37 73.166 37H72.7266L72.7207 35.8164L73.0137 35.7871C73.3262 35.7441 73.5527 35.5547 73.6934 35.2188C73.8379 34.8789 73.9297 34.2617 73.9688 33.3672L74.0859 30.6602H78.6445ZM79.8926 33.7715C79.8926 33.1504 80.0156 32.5918 80.2617 32.0957C80.5078 31.5957 80.8535 31.2129 81.2988 30.9473C81.7441 30.6777 82.2559 30.543 82.834 30.543C83.6895 30.543 84.3828 30.8184 84.9141 31.3691C85.4492 31.9199 85.7383 32.6504 85.7812 33.5605L85.7871 33.8945C85.7871 34.5195 85.666 35.0781 85.4238 35.5703C85.1855 36.0625 84.8418 36.4434 84.3926 36.7129C83.9473 36.9824 83.4316 37.1172 82.8457 37.1172C81.9512 37.1172 81.2344 36.8203 80.6953 36.2266C80.1602 35.6289 79.8926 34.834 79.8926 33.8418V33.7715ZM81.3164 33.8945C81.3164 34.5469 81.4512 35.0586 81.7207 35.4297C81.9902 35.7969 82.3652 35.9805 82.8457 35.9805C83.3262 35.9805 83.6992 35.793 83.9648 35.418C84.2344 35.043 84.3691 34.4941 84.3691 33.7715C84.3691 33.1309 84.2305 32.623 83.9531 32.248C83.6797 31.873 83.3066 31.6855 82.834 31.6855C82.3691 31.6855 82 31.8711 81.7266 32.2422C81.4531 32.6094 81.3164 33.1602 81.3164 33.8945ZM91.2129 31.8086H88.459V37H87.041V30.6602H91.2129V31.8086ZM95.9766 30.6602H97.3945V37H95.9766V32.7695L93.4922 37H92.0742V30.6602H93.4922V34.8906L95.9766 30.6602ZM102.867 30.6602H104.285V37H102.867V32.7695L100.383 37H98.9648V30.6602H100.383V34.8906L102.867 30.6602Z" fill="#788891"/>
</symbol><symbol id="icon-vk" viewBox="0 0 27 26">
<path d="M19.475 15.1271C18.3662 14.1029 18.287 14.1029 19.2374 12.9211C20.4254 11.4243 22.0095 9.53349 20.5838 9.53349H17.9701C17.4949 9.53349 17.4157 9.84862 17.2573 10.2425C16.6237 11.7394 15.3565 13.709 14.8812 13.3938C14.406 13.0787 14.6436 11.897 14.6436 10.0062C14.7228 9.76984 14.6436 9.53349 14.4852 9.37592C14.3268 9.21836 14.0892 9.06079 13.8516 9.06079C13.4556 8.98201 13.0596 8.90323 12.6636 8.90323C11.1587 8.90323 10.1291 9.53349 10.6835 9.61227C11.7131 9.76984 11.6339 11.9758 11.3963 12.9211C11.0003 14.5756 9.41624 11.6606 8.70342 10.1638C8.62421 9.76984 8.3074 9.53349 7.91139 9.53349H5.85212C5.53531 9.53349 5.2977 9.61227 5.2977 9.84862C5.2977 10.2425 7.27777 14.1029 9.09943 16.0725C10.9211 17.9632 12.7428 17.8057 14.01 17.8057C14.1684 17.8057 14.3268 17.7269 14.406 17.6481C14.4852 17.5693 14.5644 17.4118 14.5644 17.2542C14.5644 15.9937 15.0396 15.3634 15.9109 16.23C16.8613 17.1754 17.0989 17.8057 18.287 17.8057H20.4254C20.9799 17.8057 21.1383 17.6481 21.1383 17.4118C21.2175 16.8603 20.267 15.8361 19.475 15.1271ZM13.8516 0.000789162C21.2175 0.158354 27.0785 6.06705 26.9993 13.2363C26.9201 20.4055 20.8214 26.0778 13.4556 25.9991C6.01052 25.9203 0.0703125 20.1691 0.0703125 12.9999C0.149515 5.75192 6.32733 -0.0779935 13.8516 0.000789162Z" fill="#CDCDCD"/>
</symbol></svg>