<svg width="133" height="40" viewBox="0 0 133 40" fill="none" xmlns="http://www.w3.org/2000/svg">
<path d="M8.93555 14.3369C8.93555 13.6126 8.74837 13.0674 8.37402 12.7012C8.00781 12.3268 7.33643 11.9403 6.35986 11.5415C4.57764 10.866 3.2959 10.0767 2.51465 9.17334C1.7334 8.26188 1.34277 7.18766 1.34277 5.95068C1.34277 4.45329 1.87174 3.25293 2.92969 2.34961C3.99577 1.43815 5.34668 0.982422 6.98242 0.982422C8.07292 0.982422 9.04541 1.21436 9.8999 1.67822C10.7544 2.13395 11.4095 2.78092 11.8652 3.61914C12.3291 4.45736 12.561 5.40951 12.561 6.47559H8.98438C8.98438 5.64551 8.80534 5.01481 8.44727 4.5835C8.09733 4.14404 7.5887 3.92432 6.92139 3.92432C6.29476 3.92432 5.80648 4.11149 5.45654 4.48584C5.10661 4.85205 4.93164 5.34847 4.93164 5.9751C4.93164 6.46338 5.12695 6.9069 5.51758 7.30566C5.9082 7.69629 6.59993 8.10319 7.59277 8.52637C9.32617 9.15299 10.5835 9.92204 11.3647 10.8335C12.1541 11.745 12.5488 12.9046 12.5488 14.3125C12.5488 15.8587 12.0565 17.0672 11.0718 17.938C10.0871 18.8088 8.74837 19.2441 7.05566 19.2441C5.9082 19.2441 4.86247 19.0081 3.91846 18.5361C2.97445 18.0641 2.23389 17.3887 1.69678 16.5098C1.16781 15.6309 0.90332 14.5933 0.90332 13.397H4.50439C4.50439 14.4224 4.70378 15.167 5.10254 15.6309C5.5013 16.0947 6.15234 16.3267 7.05566 16.3267C8.30892 16.3267 8.93555 15.6634 8.93555 14.3369ZM18.0054 5.79199L18.103 7.0127C18.8761 6.03613 19.8975 5.54785 21.167 5.54785C22.4854 5.54785 23.4172 6.14193 23.9624 7.33008C24.7192 6.14193 25.7975 5.54785 27.1973 5.54785C29.5085 5.54785 30.6925 7.14697 30.7495 10.3452V19H27.2949V10.5649C27.2949 9.79997 27.1891 9.25472 26.9775 8.9292C26.766 8.60368 26.4079 8.44092 25.9033 8.44092C25.2604 8.44092 24.7803 8.83561 24.4629 9.625L24.4873 10.04V19H21.0327V10.5894C21.0327 9.83252 20.931 9.28727 20.7275 8.95361C20.5241 8.61182 20.1619 8.44092 19.6411 8.44092C19.047 8.44092 18.575 8.76237 18.2251 9.40527V19H14.7705V5.79199H18.0054ZM39.5874 19C39.4897 18.7965 39.3921 18.4548 39.2944 17.9746C38.6759 18.821 37.8377 19.2441 36.7798 19.2441C35.673 19.2441 34.7534 18.8779 34.021 18.1455C33.2967 17.4131 32.9346 16.465 32.9346 15.3013C32.9346 13.9178 33.374 12.8477 34.2529 12.0908C35.14 11.334 36.4136 10.9474 38.0737 10.9312H39.1235V9.86914C39.1235 9.27507 39.0218 8.85596 38.8184 8.61182C38.6149 8.36768 38.3179 8.24561 37.9272 8.24561C37.0646 8.24561 36.6333 8.75016 36.6333 9.75928H33.1787C33.1787 8.53857 33.6344 7.53353 34.5459 6.74414C35.4655 5.94661 36.6252 5.54785 38.0249 5.54785C39.4735 5.54785 40.5924 5.92627 41.3818 6.68311C42.1794 7.4318 42.5781 8.50602 42.5781 9.90576V16.1191C42.5944 17.2585 42.7572 18.1496 43.0664 18.7925V19H39.5874ZM37.5488 16.5342C37.9313 16.5342 38.2568 16.4569 38.5254 16.3022C38.7939 16.1476 38.9933 15.9645 39.1235 15.7529V13.0063H38.2935C37.7075 13.0063 37.2437 13.1935 36.9019 13.5679C36.5682 13.9422 36.4014 14.4427 36.4014 15.0693C36.4014 16.0459 36.7839 16.5342 37.5488 16.5342ZM51.5991 9.12451L50.4517 9.02686C49.5076 9.02686 48.8688 9.44189 48.5352 10.272V19H45.0684V5.79199H48.3276L48.4253 7.22021C48.9705 6.10531 49.7233 5.54785 50.6836 5.54785C51.0742 5.54785 51.3916 5.60075 51.6357 5.70654L51.5991 9.12451ZM58.0078 2.54492V5.79199H59.7778V8.39209H58.0078V14.9473C58.0078 15.4681 58.077 15.8262 58.2153 16.0215C58.3618 16.2168 58.6385 16.3145 59.0454 16.3145C59.3791 16.3145 59.6517 16.286 59.8633 16.229L59.8389 18.9146C59.2529 19.1343 58.6182 19.2441 57.9346 19.2441C55.7048 19.2441 54.5776 17.9665 54.5532 15.4111V8.39209H53.0273V5.79199H54.5532V2.54492H58.0078ZM67.6147 19V1.22656H72.3145C74.3896 1.22656 76.0417 1.88574 77.2705 3.2041C78.5075 4.52246 79.1382 6.3291 79.1626 8.62402V11.5049C79.1626 13.8405 78.5441 15.6756 77.3071 17.0103C76.0783 18.3368 74.3815 19 72.2168 19H67.6147ZM71.2036 4.21729V16.0215H72.2778C73.4741 16.0215 74.3164 15.7082 74.8047 15.0815C75.293 14.4468 75.5493 13.3563 75.5737 11.8101V8.72168C75.5737 7.06152 75.3418 5.90592 74.8779 5.25488C74.4141 4.5957 73.6247 4.24984 72.5098 4.21729H71.2036ZM86.9141 19.2441C85.14 19.2441 83.7565 18.7152 82.7637 17.6572C81.7708 16.5993 81.2744 15.0856 81.2744 13.1162V12.0664C81.2744 9.98307 81.7301 8.37581 82.6416 7.24463C83.5531 6.11344 84.8592 5.54785 86.5601 5.54785C88.2202 5.54785 89.4694 6.08089 90.3076 7.14697C91.1458 8.20492 91.5731 9.77555 91.5894 11.8589V13.5557H84.7168C84.7656 14.5322 84.9813 15.2484 85.3638 15.7041C85.7463 16.1517 86.3363 16.3755 87.1338 16.3755C88.2894 16.3755 89.2537 15.9808 90.0269 15.1914L91.3818 17.2788C90.9587 17.8647 90.3442 18.3408 89.5386 18.707C88.7329 19.0651 87.8581 19.2441 86.9141 19.2441ZM84.7412 11.1387H88.1958V10.8213C88.1795 10.0319 88.0493 9.43376 87.8052 9.02686C87.561 8.61995 87.1379 8.4165 86.5356 8.4165C85.9334 8.4165 85.494 8.63216 85.2173 9.06348C84.9487 9.49479 84.79 10.1865 84.7412 11.1387ZM97.7051 14.1172L99.3774 5.79199H102.979L99.353 19H96.0571L92.4194 5.79199H96.0327L97.7051 14.1172ZM108.228 19H104.761V5.79199H108.228V19ZM104.602 2.37402C104.602 1.83691 104.773 1.39746 105.115 1.05566C105.457 0.713867 105.912 0.542969 106.482 0.542969C107.052 0.542969 107.507 0.713867 107.849 1.05566C108.191 1.39746 108.362 1.83691 108.362 2.37402C108.362 2.90299 108.191 3.34245 107.849 3.69238C107.515 4.04232 107.06 4.21729 106.482 4.21729C105.904 4.21729 105.444 4.04232 105.103 3.69238C104.769 3.34245 104.602 2.90299 104.602 2.37402ZM115.674 16.3755C116.675 16.3755 117.183 15.7244 117.2 14.4224H120.447C120.431 15.8628 119.987 17.0265 119.116 17.9136C118.245 18.8006 117.122 19.2441 115.747 19.2441C114.046 19.2441 112.748 18.7152 111.853 17.6572C110.958 16.5993 110.502 15.0409 110.486 12.9819V11.9321C110.486 9.85693 110.925 8.27409 111.804 7.18359C112.691 6.0931 113.997 5.54785 115.723 5.54785C117.179 5.54785 118.327 5.99951 119.165 6.90283C120.003 7.79801 120.431 9.07161 120.447 10.7236H117.2C117.192 9.98307 117.069 9.41341 116.833 9.01465C116.597 8.61589 116.207 8.4165 115.662 8.4165C115.059 8.4165 114.628 8.63216 114.368 9.06348C114.107 9.48665 113.969 10.3127 113.953 11.5415V12.8843C113.953 13.9585 114.006 14.7113 114.111 15.1426C114.217 15.5658 114.392 15.8791 114.636 16.0825C114.88 16.2778 115.226 16.3755 115.674 16.3755ZM127.734 19.2441C125.96 19.2441 124.577 18.7152 123.584 17.6572C122.591 16.5993 122.095 15.0856 122.095 13.1162V12.0664C122.095 9.98307 122.55 8.37581 123.462 7.24463C124.373 6.11344 125.68 5.54785 127.38 5.54785C129.041 5.54785 130.29 6.08089 131.128 7.14697C131.966 8.20492 132.393 9.77555 132.41 11.8589V13.5557H125.537C125.586 14.5322 125.802 15.2484 126.184 15.7041C126.567 16.1517 127.157 16.3755 127.954 16.3755C129.11 16.3755 130.074 15.9808 130.847 15.1914L132.202 17.2788C131.779 17.8647 131.165 18.3408 130.359 18.707C129.553 19.0651 128.678 19.2441 127.734 19.2441ZM125.562 11.1387H129.016V10.8213C129 10.0319 128.87 9.43376 128.625 9.02686C128.381 8.61995 127.958 8.4165 127.356 8.4165C126.754 8.4165 126.314 8.63216 126.038 9.06348C125.769 9.49479 125.61 10.1865 125.562 11.1387Z" fill="white"/>
<path d="M2.94727 34.9609L4.23633 30.6602H5.75391L3.23438 37.9609C2.84766 39.0273 2.19141 39.5605 1.26562 39.5605C1.05859 39.5605 0.830078 39.5254 0.580078 39.4551V38.3535L0.849609 38.3711C1.20898 38.3711 1.47852 38.3047 1.6582 38.1719C1.8418 38.043 1.98633 37.8242 2.0918 37.5156L2.29688 36.9707L0.0703125 30.6602H1.60547L2.94727 34.9609ZM10.3418 35.248L12.2168 30.6602H13.998V37H12.5742V32.8047L10.8281 37H9.86133L8.10938 32.7812V37H6.68555V30.6602H8.47852L10.3418 35.248ZM20.9707 37H19.5469V34.4395H17.0801V37H15.6562V30.6602H17.0801V33.3027H19.5469V30.6602H20.9707V37ZM24.0234 32.6758H25.418C25.9375 32.6758 26.3906 32.7656 26.7773 32.9453C27.1641 33.125 27.457 33.377 27.6562 33.7012C27.8594 34.0254 27.9609 34.4023 27.9609 34.832C27.9609 35.4844 27.7305 36.0078 27.2695 36.4023C26.8086 36.7969 26.1953 36.9961 25.4297 37H22.5996V30.6602H24.0234V32.6758ZM30.4395 37H29.0156V30.6602H30.4395V37ZM24.0234 33.8184V35.8633H25.4121C25.7598 35.8633 26.0332 35.7773 26.2324 35.6055C26.4355 35.4297 26.5371 35.1816 26.5371 34.8613C26.5371 34.541 26.4375 34.2891 26.2383 34.1055C26.043 33.918 25.7773 33.8223 25.4414 33.8184H24.0234ZM34.9395 37.1172C34.0371 37.1172 33.3047 36.834 32.7422 36.2676C32.1836 35.6973 31.9043 34.9395 31.9043 33.9941V33.8184C31.9043 33.1855 32.0254 32.6211 32.2676 32.125C32.5137 31.625 32.8574 31.2363 33.2988 30.959C33.7402 30.6816 34.2324 30.543 34.7754 30.543C35.6387 30.543 36.3047 30.8184 36.7734 31.3691C37.2461 31.9199 37.4824 32.6992 37.4824 33.707V34.2812H33.3398C33.3828 34.8047 33.5566 35.2188 33.8613 35.5234C34.1699 35.8281 34.5566 35.9805 35.0215 35.9805C35.6738 35.9805 36.2051 35.7168 36.6152 35.1895L37.3828 35.9219C37.1289 36.3008 36.7891 36.5957 36.3633 36.8066C35.9414 37.0137 35.4668 37.1172 34.9395 37.1172ZM34.7695 31.6855C34.3789 31.6855 34.0625 31.8223 33.8203 32.0957C33.582 32.3691 33.4297 32.75 33.3633 33.2383H36.0762V33.1328C36.0449 32.6562 35.918 32.2969 35.6953 32.0547C35.4727 31.8086 35.1641 31.6855 34.7695 31.6855ZM46.5703 31.791H44.5137V37H43.0898V31.791H41.0566V30.6602H46.5703V31.791ZM49.9395 37.1172C49.0371 37.1172 48.3047 36.834 47.7422 36.2676C47.1836 35.6973 46.9043 34.9395 46.9043 33.9941V33.8184C46.9043 33.1855 47.0254 32.6211 47.2676 32.125C47.5137 31.625 47.8574 31.2363 48.2988 30.959C48.7402 30.6816 49.2324 30.543 49.7754 30.543C50.6387 30.543 51.3047 30.8184 51.7734 31.3691C52.2461 31.9199 52.4824 32.6992 52.4824 33.707V34.2812H48.3398C48.3828 34.8047 48.5566 35.2188 48.8613 35.5234C49.1699 35.8281 49.5566 35.9805 50.0215 35.9805C50.6738 35.9805 51.2051 35.7168 51.6152 35.1895L52.3828 35.9219C52.1289 36.3008 51.7891 36.5957 51.3633 36.8066C50.9414 37.0137 50.4668 37.1172 49.9395 37.1172ZM49.7695 31.6855C49.3789 31.6855 49.0625 31.8223 48.8203 32.0957C48.582 32.3691 48.4297 32.75 48.3633 33.2383H51.0762V33.1328C51.0449 32.6562 50.918 32.2969 50.6953 32.0547C50.4727 31.8086 50.1641 31.6855 49.7695 31.6855ZM55.8691 32.7461L57.0762 30.6602H58.6582L56.7188 33.7832L58.7227 37H57.1523L55.8867 34.832L54.627 37H53.0449L55.0488 33.7832L53.1152 30.6602H54.6855L55.8691 32.7461ZM64.998 37H63.5742V34.4395H61.1074V37H59.6836V30.6602H61.1074V33.3027H63.5742V30.6602H64.998V37ZM66.252 33.7715C66.252 33.1504 66.375 32.5918 66.6211 32.0957C66.8672 31.5957 67.2129 31.2129 67.6582 30.9473C68.1035 30.6777 68.6152 30.543 69.1934 30.543C70.0488 30.543 70.7422 30.8184 71.2734 31.3691C71.8086 31.9199 72.0977 32.6504 72.1406 33.5605L72.1465 33.8945C72.1465 34.5195 72.0254 35.0781 71.7832 35.5703C71.5449 36.0625 71.2012 36.4434 70.752 36.7129C70.3066 36.9824 69.791 37.1172 69.2051 37.1172C68.3105 37.1172 67.5938 36.8203 67.0547 36.2266C66.5195 35.6289 66.252 34.834 66.252 33.8418V33.7715ZM67.6758 33.8945C67.6758 34.5469 67.8105 35.0586 68.0801 35.4297C68.3496 35.7969 68.7246 35.9805 69.2051 35.9805C69.6855 35.9805 70.0586 35.793 70.3242 35.418C70.5938 35.043 70.7285 34.4941 70.7285 33.7715C70.7285 33.1309 70.5898 32.623 70.3125 32.248C70.0391 31.873 69.666 31.6855 69.1934 31.6855C68.7285 31.6855 68.3594 31.8711 68.0859 32.2422C67.8125 32.6094 67.6758 33.1602 67.6758 33.8945ZM78.6445 30.6602V37H77.2207V31.8086H75.4277L75.3105 34.0176C75.2363 35.0801 75.0312 35.8438 74.6953 36.3086C74.3633 36.7695 73.8535 37 73.166 37H72.7266L72.7207 35.8164L73.0137 35.7871C73.3262 35.7441 73.5527 35.5547 73.6934 35.2188C73.8379 34.8789 73.9297 34.2617 73.9688 33.3672L74.0859 30.6602H78.6445ZM79.8926 33.7715C79.8926 33.1504 80.0156 32.5918 80.2617 32.0957C80.5078 31.5957 80.8535 31.2129 81.2988 30.9473C81.7441 30.6777 82.2559 30.543 82.834 30.543C83.6895 30.543 84.3828 30.8184 84.9141 31.3691C85.4492 31.9199 85.7383 32.6504 85.7812 33.5605L85.7871 33.8945C85.7871 34.5195 85.666 35.0781 85.4238 35.5703C85.1855 36.0625 84.8418 36.4434 84.3926 36.7129C83.9473 36.9824 83.4316 37.1172 82.8457 37.1172C81.9512 37.1172 81.2344 36.8203 80.6953 36.2266C80.1602 35.6289 79.8926 34.834 79.8926 33.8418V33.7715ZM81.3164 33.8945C81.3164 34.5469 81.4512 35.0586 81.7207 35.4297C81.9902 35.7969 82.3652 35.9805 82.8457 35.9805C83.3262 35.9805 83.6992 35.793 83.9648 35.418C84.2344 35.043 84.3691 34.4941 84.3691 33.7715C84.3691 33.1309 84.2305 32.623 83.9531 32.248C83.6797 31.873 83.3066 31.6855 82.834 31.6855C82.3691 31.6855 82 31.8711 81.7266 32.2422C81.4531 32.6094 81.3164 33.1602 81.3164 33.8945ZM91.2129 31.8086H88.459V37H87.041V30.6602H91.2129V31.8086ZM95.9766 30.6602H97.3945V37H95.9766V32.7695L93.4922 37H92.0742V30.6602H93.4922V34.8906L95.9766 30.6602ZM102.867 30.6602H104.285V37H102.867V32.7695L100.383 37H98.9648V30.6602H100.383V34.8906L102.867 30.6602Z" fill="#788891"/>
</svg>
